<?xml version="1.0" standalone="no"?>
<!DOCTYPE svg PUBLIC "-//W3C//DTD SVG 20010904//EN"
 "http://www.w3.org/TR/2001/REC-SVG-20010904/DTD/svg10.dtd">
<svg version="1.0" xmlns="http://www.w3.org/2000/svg"
 width="498.000000pt" height="325.000000pt" viewBox="0 0 498.000000 325.000000"
 preserveAspectRatio="xMidYMid meet">

<g transform="translate(0.000000,325.000000) scale(0.100000,-0.100000)"
fill="#ffffff" stroke="none">
<path d="M1247 2002 l-1237 -1237 165 -165 165 -165 1075 1075 1075 1075 1073
-1073 c589 -589 1077 -1072 1082 -1072 6 0 82 72 170 160 l160 160 -1240 1240
c-682 682 -1242 1240 -1245 1240 -3 0 -562 -557 -1243 -1238z"/>
<path d="M2040 760 l0 -750 455 0 455 0 -2 748 -3 747 -452 3 -453 2 0 -750z"/>
</g>
</svg>
